{"title":"PublicDisgrace ~ Adriana Chechik - Teen Supermodel Abused","uid":10798504,"size":655417912,"categoryP":"porn","categoryS":"movie_clips","magnet":"?xt=urn:btih:bd69b9e7487d1065396b0c728a59f4874902373d&amp;dn=PublicDisgrace+%7E+Adriana+Chechik+-+Teen+Supermodel+Abused&amp;tr=udp%3A%2F%2Ftracker.openbittorrent.com%3A80&amp;tr=udp%3A%2F%2Fopen.demonii.com%3A1337&amp;tr=udp%3A%2F%2Ftracker.coppersurfer.tk%3A6969&amp;tr=udp%3A%2F%2Fexodus.desync.com%3A6969","seeders":1,"leechers":1,"uploader":"ThousandPeers","files":-1,"time":1408314573,"description":"Description and screens at\n\n\nFormat                                   : MPEG-4\nFormat profile                           : Base Media\nCodec ID                                 : isom\nFile size                                : 625 MiB\nDuration                                 : 1h 39mn\nOverall bit rate mode                    : Variable\nOverall bit rate                         : 874 Kbps\nWriting application                      : Lavf52.64.2\n\nVideo\nID                                       : 1\nFormat                                   : MPEG-4 Visual\nFormat profile                           : Simple@L1\nFormat settings, BVOP                    : No\nFormat settings, QPel                    : No\nFormat settings, GMC                     : No warppoints\nFormat settings, Matrix                  : Default (H.263)\nCodec ID                                 : 20\nDuration                                 : 1h 39mn\nBit rate                                 : 820 Kbps\nWidth                                    : 640 pixels\nHeight                                   : 360 pixels\nDisplay aspect ratio                     : 16:9\nFrame rate mode                          : Constant\nFrame rate                               : 29.970 fps\nColor space                              : YUV\nChroma subsampling                       : 4:2:0\nBit depth                                : 8 bits\nScan type                                : Progressive\nCompression mode                         : Lossy\nBits/(Pixel*Frame)                       : 0.119\nStream size                              : 586 MiB (94%)\nWriting library                          : Lavc52.72.2\nLanguage                                 : English\n\nAudio\nID                                       : 2\nFormat                                   : AAC\nFormat/Info                              : Advanced Audio Codec\nFormat profile                           : LC\nCodec ID                                 : 40\nDuration                                 : 1h 39mn\nBit rate mode                            : Variable\nBit rate                                 : 48.0 Kbps\nChannel(s)                               : 2 channels\nChannel positions                        : Front: L R\nSampling rate                            : 44.1 KHz\nCompression mode                         : Lossy\nStream size                              : 35.2 MiB (6%)\nLanguage                                 : English","torrent":{"xt":"urn:btih:bd69b9e7487d1065396b0c728a59f4874902373d","amp;dn":"PublicDisgrace+%7E+Adriana+Chechik+-+Teen+Supermodel+Abused","amp;tr":["udp%3A%2F%2Ftracker.openbittorrent.com%3A80","udp%3A%2F%2Fopen.demonii.com%3A1337","udp%3A%2F%2Ftracker.coppersurfer.tk%3A6969","udp%3A%2F%2Fexodus.desync.com%3A6969"],"infoHash":"bd69b9e7487d1065396b0c728a59f4874902373d","infoHashBuffer":{"type":"Buffer","data":[189,105,185,231,72,125,16,101,57,107,12,114,138,89,244,135,73,2,55,61]},"announce":[],"urlList":[]}}